<svg xmlns="http://www.w3.org/2000/svg" xmlns:xlink="http://www.w3.org/1999/xlink" viewBox="0 0 366.79892 72.44957"><defs><linearGradient id="a" x1="2" y1="21.42493" x2="87.87621" y2="21.42493" gradientUnits="userSpaceOnUse"><stop offset="0" stop-opacity="0"/><stop offset="1" stop-color="#fff"/></linearGradient></defs><g style="isolation:isolate"><path d="M79.71159,33.40982c5.00415,14.6897-3.28284,27.6364-22.74732,33.66253S19.15451,71.64747,14.08911,55.2862s5.24173-34.683,24.866-40.16032C59.60607,9.362,75.19019,20.13724,79.71159,33.40982Z" style="fill:#fff;stroke:#251818;stroke-miterlimit:10;stroke-width:4.23054313659668px"/><path d="M5.78225,21.91135c-6.33762,6.91377-3.56066,12.26451,0,13.847,4.36839,1.9415,22.335,7.83267,27.69405,3.58795,6.52788-5.17047,11.68455-12.66772,24.92464-13.74244s16.17973.20383,21.75961,2.37378c3.56066,1.3847,5.4476-1.814,7.51695-5.53881C89.65565,18.8782,76.49292,5.97817,64.731,3.44866,53.91132,1.12178,38.81729,1.47051,30.50908,5.4268S10.13417,17.1638,5.78225,21.91135Z" style="fill:#f08437"/><path d="M5.78225,21.91135c-6.33762,6.91377-3.56066,12.26451,0,13.847,4.36839,1.9415,22.335,7.83267,27.69405,3.58795,6.52788-5.17047,11.68455-12.66772,24.92464-13.74244s16.17973.20383,21.75961,2.37378c3.56066,1.3847,5.4476-1.814,7.51695-5.53881C89.65565,18.8782,76.49292,5.97817,64.731,3.44866,53.91132,1.12178,38.81729,1.47051,30.50908,5.4268S10.13417,17.1638,5.78225,21.91135Z" style="mix-blend-mode:overlay;opacity:0.6000000000000001;fill:url(#a)"/><path d="M11.60908,16.85233c8.47585-3.8437,23.75525,8.02443,29.634,15.2633" style="fill:none;stroke:#f3c48a;stroke-miterlimit:10;stroke-width:4px"/><path d="M28.85646,6.30679c11.13688-2.06968,25.79715,9.16575,27.42333,19.14459" style="fill:none;stroke:#f3c48a;stroke-miterlimit:10;stroke-width:4px"/><path d="M55.39278,2.16742c9.33823,1.28124,20.68249,18.1433,15.44873,22.668" style="fill:none;stroke:#f3c48a;stroke-miterlimit:10;stroke-width:4px"/><path d="M5.78225,21.91135c-6.33762,6.91377-3.56066,12.26451,0,13.847,4.36839,1.9415,22.335,7.83267,27.69405,3.58795,6.52788-5.17047,11.68455-12.66772,24.92464-13.74244s16.17973.20383,21.75961,2.37378c3.56066,1.3847,5.4476-1.814,7.51695-5.53881C89.65565,18.8782,76.49292,5.97817,64.731,3.44866,53.91132,1.12178,38.81729,1.47051,30.50908,5.4268S10.13417,17.1638,5.78225,21.91135Z" style="fill:none;stroke:#251818;stroke-miterlimit:10;stroke-width:4px"/><path d="M18.20178,46.36932l11.41809,3.42447a.31254.31254,0,0,1,.12359.56774L21.27608,57.126" style="fill:none;stroke:#251818;stroke-linecap:round;stroke-miterlimit:10;stroke-width:3.49022980304002px"/><path d="M47.46516,41.30566,37.036,48.91376a.29094.29094,0,0,0,.04015.541l12.889,2.65685" style="fill:none;stroke:#251818;stroke-linecap:round;stroke-miterlimit:10;stroke-width:3.49022980304002px"/><path d="M72.344,46.2308s1.97815,7.65452-3.42878,7.38594-3.03316-7.78881-3.03316-7.78881M55.66026,36.76074s-2.37377,7.93626,3.03316,8.2197,3.42879-7.79455,3.42879-7.79455m-6.3946,10.81028s-2.37378,8.10015,3.03315,8.38944,3.42879-7.9555,3.42879-7.9555" style="fill:#93d2ec"/><path d="M62.12221,37.72774s1.97814,7.517-3.42879,7.2532-3.03316-7.64883-3.03316-7.64883m.06735,11.40532s-2.37378,7.38508,3.03315,7.64884,3.42879-7.25321,3.42879-7.25321m3.69254-3.165s-2.37378,7.38508,3.03316,7.64883,3.42878-7.2532,3.42878-7.2532" style="fill:none;stroke:#17363f;stroke-linecap:round;stroke-miterlimit:10;stroke-width:2px"/><path d="M130.18319,51.01219a7.81539,7.81539,0,0,1-3.03418,6.65234q-3.03441,2.28516-9.07714,2.28516a28.50615,28.50615,0,0,1-5.28125-.41895,19.95,19.95,0,0,1-4.08789-1.23144V51.90086A26.93716,26.93716,0,0,0,113.565,53.602a19.68843,19.68843,0,0,0,4.76074.68555q4.21435,0,4.21485-2.4375a2.03571,2.03571,0,0,0-.5586-1.48535,8.10254,8.10254,0,0,0-1.92968-1.29493q-1.3711-.72363-3.65625-1.68847a22.95652,22.95652,0,0,1-4.81153-2.53906,7.139,7.139,0,0,1-2.23437-2.67872,8.83605,8.83605,0,0,1-.69825-3.71972,6.74379,6.74379,0,0,1,2.93262-5.85254q2.93262-2.0691,8.31543-2.06934a23.61,23.61,0,0,1,9.97852,2.23438l-2.33594,5.58594q-2.13282-.91407-3.98633-1.498a12.5253,12.5253,0,0,0-3.7832-.584q-3.42774,0-3.42774,1.85352a2.17867,2.17867,0,0,0,1.1045,1.80273,30.02107,30.02107,0,0,0,4.83691,2.25977,22.50766,22.50766,0,0,1,4.875,2.51367,7.44215,7.44215,0,0,1,2.28516,2.69141A8.27483,8.27483,0,0,1,130.18319,51.01219Z" style="fill:#231815"/><path d="M156.33554,59.44187l-1.041-3.63085h-.40625a8.16716,8.16716,0,0,1-3.52929,3.05957,12.0459,12.0459,0,0,1-5.20508,1.0791q-5.00244,0-7.541-2.67871-2.5393-2.67774-2.53906-7.70606V31.05516H143.818V47.63523a7.95976,7.95976,0,0,0,1.0918,4.6084,3.97085,3.97085,0,0,0,3.47851,1.53614,5.22986,5.22986,0,0,0,4.69727-2.1709q1.44726-2.17091,1.44726-7.19825V31.05516h7.74414V59.44187Z" style="fill:#231815"/><path d="M190.20663,51.01219a7.81542,7.81542,0,0,1-3.03418,6.65234q-3.03443,2.28516-9.07715,2.28516a28.50622,28.50622,0,0,1-5.28125-.41895,19.95014,19.95014,0,0,1-4.08789-1.23144V51.90086a26.93727,26.93727,0,0,0,4.86231,1.70117,19.68843,19.68843,0,0,0,4.76074.68555q4.21436,0,4.21484-2.4375a2.03571,2.03571,0,0,0-.55859-1.48535,8.10243,8.10243,0,0,0-1.92969-1.29493q-1.37109-.72363-3.65625-1.68847a22.95639,22.95639,0,0,1-4.81152-2.53906,7.13909,7.13909,0,0,1-2.23438-2.67872,8.83606,8.83606,0,0,1-.69824-3.71972,6.74379,6.74379,0,0,1,2.93262-5.85254q2.93262-2.0691,8.31543-2.06934a23.61,23.61,0,0,1,9.97851,2.23438L187.566,38.34227q-2.13282-.91407-3.98633-1.498a12.5253,12.5253,0,0,0-3.7832-.584q-3.42774,0-3.42774,1.85352a2.17868,2.17868,0,0,0,1.10449,1.80273,30.02177,30.02177,0,0,0,4.83692,2.25977,22.50814,22.50814,0,0,1,4.875,2.51367,7.44221,7.44221,0,0,1,2.28515,2.69141A8.27468,8.27468,0,0,1,190.20663,51.01219Z" style="fill:#231815"/><path d="M222.45321,59.44187h-7.74414V42.8618q0-6.14428-4.57031-6.14453a5.197,5.197,0,0,0-4.69726,2.209q-1.44727,2.209-1.44727,7.16016V59.44187h-7.74414V19.93406h7.74414v8.04883q0,.9397-.17773,4.418l-.17774,2.28516h.40625q2.58984-4.16382,8.22656-4.16407,5.001,0,7.5918,2.69141,2.58984,2.69165,2.58984,7.71875Z" style="fill:#231815"/><path d="M230.09579,23.71727q0-3.783,4.21485-3.78321,4.21435,0,4.21484,3.78321a3.68886,3.68886,0,0,1-1.05371,2.80566,4.42975,4.42975,0,0,1-3.16113,1.00293Q230.09482,27.52586,230.09579,23.71727ZM238.17,59.44187h-7.74414V31.05516H238.17Z" style="fill:#231815"/><path d="M272.49814,59.44187H264.754V42.8618q0-6.14428-4.57032-6.14453a5.197,5.197,0,0,0-4.69726,2.209q-1.44728,2.209-1.44727,7.16016V59.44187H246.295V19.93406h7.74414v8.04883q0,.9397-.17773,4.418l-.17774,2.28516h.40625q2.58985-4.16382,8.22657-4.16407,5.00244,0,7.59179,2.69141,2.58984,2.69165,2.58985,7.71875Z" style="fill:#231815"/><path d="M298.49814,59.44187l-1.498-3.85937H296.797a11.43083,11.43083,0,0,1-4.02441,3.415,13.00574,13.00574,0,0,1-5.39551.95215,8.72232,8.72232,0,0,1-6.43652-2.33594,8.97053,8.97053,0,0,1-2.34863-6.65234q0-4.51905,3.16113-6.665,3.16113-2.14527,9.53418-2.374L296.213,41.77V40.52586q0-4.31616-4.418-4.31641a20.1302,20.1302,0,0,0-7.998,2.05664l-2.56445-5.23047a23.07921,23.07921,0,0,1,10.86719-2.56445q5.71289,0,8.75976,2.48828,3.04688,2.48877,3.04688,7.56641v18.916ZM296.213,46.28953l-2.99609.10156a9.609,9.609,0,0,0-5.02735,1.21875,3.82755,3.82755,0,0,0-1.65039,3.40235q0,3.27539,3.75781,3.27539a5.94973,5.94973,0,0,0,4.30371-1.54883,5.438,5.438,0,0,0,1.61231-4.11328Z" style="fill:#231815"/><path d="M323.40634,59.94969q-13.25391,0-13.25391-14.54883,0-7.23633,3.60547-11.05762,3.605-3.821,10.334-3.82129a19.70314,19.70314,0,0,1,8.83593,1.92969l-2.28515,5.99219q-1.82812-.73608-3.40235-1.20606a10.96808,10.96808,0,0,0-3.14843-.46972q-6.04248,0-6.043,8.582,0,8.3291,6.043,8.32812a13.759,13.759,0,0,0,4.13867-.59668,14.92158,14.92158,0,0,0,3.80859-1.86621v6.627a12.4735,12.4735,0,0,1-3.7959,1.65039A21.35078,21.35078,0,0,1,323.40634,59.94969Z" style="fill:#231815"/><path d="M346.05478,44.00437l3.377-4.3164,7.94727-8.63281h8.73437L354.83993,43.36961l11.959,16.07226h-8.9375l-8.17578-11.502-3.32618,2.666v8.83593h-7.74414V19.93406h7.74414v17.6211l-.40625,6.44921Z" style="fill:#231815"/></g></svg>
