<svg xmlns="http://www.w3.org/2000/svg" xmlns:xlink="http://www.w3.org/1999/xlink" viewBox="0 0 89.87621 72.44957"><defs><linearGradient id="a" x1="2" y1="21.42493" x2="87.87621" y2="21.42493" gradientUnits="userSpaceOnUse"><stop offset="0" stop-opacity="0"/><stop offset="1" stop-color="#fff"/></linearGradient></defs><g style="isolation:isolate"><path d="M79.71159,33.40982c5.00415,14.6897-3.28284,27.6364-22.74732,33.66253S19.15451,71.64747,14.08911,55.2862s5.24173-34.683,24.866-40.16032C59.60607,9.362,75.19019,20.13724,79.71159,33.40982Z" style="fill:#fff;stroke:#251818;stroke-miterlimit:10;stroke-width:4.23054313659668px"/><path d="M5.78225,21.91135c-6.33762,6.91377-3.56066,12.26451,0,13.847,4.36839,1.9415,22.335,7.83267,27.69405,3.58795,6.52788-5.17047,11.68455-12.66772,24.92464-13.74244s16.17973.20383,21.75961,2.37378c3.56066,1.3847,5.4476-1.814,7.51695-5.53881C89.65565,18.8782,76.49292,5.97817,64.731,3.44866,53.91132,1.12178,38.81729,1.47051,30.50908,5.4268S10.13417,17.1638,5.78225,21.91135Z" style="fill:#f08437"/><path d="M5.78225,21.91135c-6.33762,6.91377-3.56066,12.26451,0,13.847,4.36839,1.9415,22.335,7.83267,27.69405,3.58795,6.52788-5.17047,11.68455-12.66772,24.92464-13.74244s16.17973.20383,21.75961,2.37378c3.56066,1.3847,5.4476-1.814,7.51695-5.53881C89.65565,18.8782,76.49292,5.97817,64.731,3.44866,53.91132,1.12178,38.81729,1.47051,30.50908,5.4268S10.13417,17.1638,5.78225,21.91135Z" style="mix-blend-mode:overlay;opacity:0.6000000000000001;fill:url(#a)"/><path d="M11.60908,16.85233c8.47585-3.8437,23.75525,8.02443,29.634,15.2633" style="fill:none;stroke:#f3c48a;stroke-miterlimit:10;stroke-width:4px"/><path d="M28.85646,6.30679c11.13688-2.06968,25.79715,9.16575,27.42333,19.14459" style="fill:none;stroke:#f3c48a;stroke-miterlimit:10;stroke-width:4px"/><path d="M55.39278,2.16742c9.33823,1.28124,20.68249,18.1433,15.44873,22.668" style="fill:none;stroke:#f3c48a;stroke-miterlimit:10;stroke-width:4px"/><path d="M5.78225,21.91135c-6.33762,6.91377-3.56066,12.26451,0,13.847,4.36839,1.9415,22.335,7.83267,27.69405,3.58795,6.52788-5.17047,11.68455-12.66772,24.92464-13.74244s16.17973.20383,21.75961,2.37378c3.56066,1.3847,5.4476-1.814,7.51695-5.53881C89.65565,18.8782,76.49292,5.97817,64.731,3.44866,53.91132,1.12178,38.81729,1.47051,30.50908,5.4268S10.13417,17.1638,5.78225,21.91135Z" style="fill:none;stroke:#251818;stroke-miterlimit:10;stroke-width:4px"/><path d="M18.20178,46.36932l11.41809,3.42447a.31254.31254,0,0,1,.12359.56774L21.27608,57.126" style="fill:none;stroke:#251818;stroke-linecap:round;stroke-miterlimit:10;stroke-width:3.49022980304002px"/><path d="M47.46516,41.30566,37.036,48.91376a.29094.29094,0,0,0,.04015.541l12.889,2.65685" style="fill:none;stroke:#251818;stroke-linecap:round;stroke-miterlimit:10;stroke-width:3.49022980304002px"/><path d="M72.344,46.2308s1.97815,7.65452-3.42878,7.38594-3.03316-7.78881-3.03316-7.78881M55.66026,36.76074s-2.37377,7.93626,3.03316,8.2197,3.42879-7.79455,3.42879-7.79455m-6.3946,10.81028s-2.37378,8.10015,3.03315,8.38944,3.42879-7.9555,3.42879-7.9555" style="fill:#93d2ec"/><path d="M62.12221,37.72774s1.97814,7.517-3.42879,7.2532-3.03316-7.64883-3.03316-7.64883m.06735,11.40532s-2.37378,7.38508,3.03315,7.64884,3.42879-7.25321,3.42879-7.25321m3.69254-3.165s-2.37378,7.38508,3.03316,7.64883,3.42878-7.2532,3.42878-7.2532" style="fill:none;stroke:#17363f;stroke-linecap:round;stroke-miterlimit:10;stroke-width:2px"/></g></svg>
